<?xml version="1.0" encoding="utf-8"?>
<!-- Generator: Adobe Illustrator 16.0.0, SVG Export Plug-In . SVG Version: 6.00 Build 0)  -->
<!DOCTYPE svg PUBLIC "-//W3C//DTD SVG 1.1//EN" "http://www.w3.org/Graphics/SVG/1.1/DTD/svg11.dtd">
<svg xmlns="http://www.w3.org/2000/svg" xmlns:xlink="http://www.w3.org/1999/xlink" version="1.1" id="Fishing" x="0px" y="0px" width="512" height="512" viewBox="0 0 144.083 144" enable-background="new 0 0 144.083 144" xml:space="preserve">
<path d="M119.817,45.67c2.145-1.888,3.693-3.252,7.104-3.252v-6c-5.676,0-8.666,2.633-11.068,4.749  c-2.143,1.888-3.691,3.251-7.102,3.251s-4.959-1.363-7.104-3.251c-2.402-2.116-5.393-4.749-11.066-4.749  c-5.676,0-8.664,2.633-11.066,4.749c-2.145,1.888-3.693,3.251-7.101,3.251c-3.41,0-4.957-1.363-7.101-3.251  c-2.4-2.116-5.391-4.749-11.064-4.749s-8.664,2.634-11.064,4.749c-2.143,1.888-3.689,3.251-7.098,3.251s-4.955-1.363-7.098-3.251  c-2.402-2.115-5.393-4.749-11.066-4.749v6c3.408,0,4.957,1.364,7.1,3.252c2.402,2.115,5.391,4.748,11.064,4.748  s8.662-2.633,11.064-4.749c2.141-1.887,3.689-3.251,7.098-3.251s4.957,1.364,7.1,3.252c2.402,2.115,5.393,4.748,11.066,4.748  s8.664-2.633,11.066-4.748c2.143-1.888,3.691-3.252,7.102-3.252s4.959,1.364,7.102,3.252c1.869,1.645,4.098,3.598,7.664,4.387  v10.234c-1.361-0.576-2.43-1.501-3.699-2.618c-2.402-2.116-5.393-4.749-11.066-4.749c-5.676,0-8.664,2.633-11.066,4.749  c-2.145,1.888-3.693,3.251-7.101,3.251c-3.41,0-4.957-1.363-7.101-3.251c-2.4-2.116-5.391-4.749-11.064-4.749  s-8.664,2.634-11.064,4.749c-2.143,1.888-3.689,3.251-7.098,3.251s-4.955-1.363-7.098-3.251c-2.402-2.115-5.393-4.749-11.066-4.749  v6c3.408,0,4.957,1.364,7.1,3.252c2.402,2.115,5.391,4.748,11.064,4.748s8.662-2.633,11.064-4.749  c2.141-1.887,3.689-3.251,7.098-3.251s4.957,1.364,7.1,3.252c2.402,2.115,5.393,4.748,11.066,4.748s8.664-2.633,11.066-4.748  c2.143-1.888,3.691-3.252,7.102-3.252s4.959,1.364,7.102,3.252c1.869,1.645,4.098,3.598,7.664,4.387v22.904  c0,3.756-3.057,6.813-6.813,6.813s-6.813-3.057-6.813-6.813h-6c0,7.064,5.748,12.813,12.813,12.813s12.813-5.748,12.813-12.813  v-22.75c4.045-0.654,6.465-2.775,8.471-4.541c2.145-1.888,3.693-3.252,7.104-3.252v-6c-5.676,0-8.666,2.633-11.068,4.749  c-1.508,1.327-2.732,2.384-4.506,2.901V50.211C115.391,49.557,117.811,47.436,119.817,45.67z"/>
<path d="M57.042,76.688c-10.262,0-21.225,7.912-25.672,11.504l-10.295-8.857l-3.914,4.549l9.59,8.252l-9.59,8.25l3.914,4.549  l10.295-8.857c4.447,3.592,15.41,11.506,25.672,11.506c13.506,0,23.688-6.641,23.688-15.447S70.548,76.688,57.042,76.688z   M57.042,101.582c-7.727,0-16.617-6.064-20.979-9.449c4.355-3.387,13.23-9.445,20.979-9.445c10.926,0,17.688,4.904,17.688,9.447  S67.968,101.582,57.042,101.582z"/>
<rect x="61.296" y="89.135" width="5.5" height="6"/>
</svg>
